<svg width="202" height="27" viewBox="0 0 202 27" fill="none" xmlns="http://www.w3.org/2000/svg">
  <g transform="translate(-0.812 25.047)" fill="white">
    <path d="M 10.266 0.406 Q 7.750 0.406 5.898 -0.406 Q 4.047 -1.219 3.000 -2.680 Q 1.953 -4.141 1.812 -6.094 L 4.859 -6.094 Q 4.984 -4.781 5.750 -3.930 Q 6.516 -3.078 7.711 -2.664 Q 8.906 -2.250 10.266 -2.250 Q 11.844 -2.250 13.102 -2.766 Q 14.359 -3.281 15.094 -4.219 Q 15.828 -5.156 15.828 -6.391 Q 15.828 -7.516 15.195 -8.219 Q 14.562 -8.922 13.516 -9.375 Q 12.469 -9.828 11.219 -10.172 L 8.406 -10.969 Q 5.594 -11.766 4.031 -13.250 Q 2.469 -14.734 2.469 -17.047 Q 2.469 -19.016 3.531 -20.492 Q 4.594 -21.969 6.406 -22.781 Q 8.219 -23.594 10.469 -23.594 Q 12.766 -23.594 14.531 -22.781 Q 16.297 -21.969 17.320 -20.570 Q 18.344 -19.172 18.406 -17.406 L 15.500 -17.406 Q 15.297 -19.109 13.875 -20.039 Q 12.453 -20.969 10.375 -20.969 Q 8.875 -20.969 7.742 -20.477 Q 6.609 -19.984 5.984 -19.133 Q 5.359 -18.281 5.359 -17.188 Q 5.359 -15.969 6.117 -15.227 Q 6.875 -14.484 7.914 -14.070 Q 8.953 -13.656 9.797 -13.422 L 12.125 -12.781 Q 13.062 -12.531 14.195 -12.094 Q 15.328 -11.656 16.359 -10.930 Q 17.391 -10.203 18.055 -9.086 Q 18.719 -7.969 18.719 -6.344 Q 18.719 -4.438 17.727 -2.906 Q 16.734 -1.375 14.844 -0.484 Q 12.953 0.406 10.266 0.406 Z "/>
    <path d="M 23.000 -0.000 L 23.000 -17.469 L 25.812 -17.469 L 25.812 -0.000 L 23.000 -0.000 Z M 24.422 -20.328 Q 23.625 -20.328 23.047 -20.875 Q 22.469 -21.422 22.469 -22.188 Q 22.469 -22.969 23.047 -23.508 Q 23.625 -24.047 24.422 -24.047 Q 25.234 -24.047 25.812 -23.508 Q 26.391 -22.969 26.391 -22.188 Q 26.391 -21.422 25.812 -20.875 Q 25.234 -20.328 24.422 -20.328 Z "/>
    <path d="M 30.750 -0.000 L 30.750 -17.469 L 33.484 -17.469 L 33.500 -13.562 L 33.281 -13.562 Q 33.641 -14.984 34.414 -15.914 Q 35.188 -16.844 36.227 -17.312 Q 37.266 -17.781 38.391 -17.781 Q 40.297 -17.781 41.477 -16.609 Q 42.656 -15.438 43.000 -13.531 L 42.625 -13.531 Q 42.938 -14.844 43.766 -15.797 Q 44.594 -16.750 45.773 -17.266 Q 46.953 -17.781 48.344 -17.781 Q 49.859 -17.781 51.109 -17.125 Q 52.359 -16.469 53.102 -15.141 Q 53.844 -13.812 53.844 -11.781 L 53.844 -0.000 L 51.031 -0.000 L 51.031 -11.703 Q 51.031 -13.594 49.969 -14.406 Q 48.906 -15.219 47.500 -15.219 Q 46.328 -15.219 45.477 -14.727 Q 44.625 -14.234 44.164 -13.375 Q 43.703 -12.516 43.703 -11.406 L 43.703 -0.000 L 40.891 -0.000 L 40.891 -11.984 Q 40.891 -13.438 39.922 -14.328 Q 38.953 -15.219 37.469 -15.219 Q 36.453 -15.219 35.555 -14.742 Q 34.656 -14.266 34.109 -13.328 Q 33.562 -12.391 33.562 -11.000 L 33.562 -0.000 L 30.750 -0.000 Z "/>
    <path d="M 59.125 -0.000 L 59.125 -23.281 L 67.094 -23.281 Q 69.812 -23.281 71.570 -22.289 Q 73.328 -21.297 74.180 -19.625 Q 75.031 -17.953 75.031 -15.875 Q 75.031 -13.797 74.180 -12.109 Q 73.328 -10.422 71.578 -9.422 Q 69.828 -8.422 67.109 -8.422 L 61.469 -8.422 L 61.469 -11.031 L 66.969 -11.031 Q 68.812 -11.031 69.938 -11.664 Q 71.062 -12.297 71.570 -13.398 Q 72.078 -14.500 72.078 -15.875 Q 72.078 -17.250 71.570 -18.336 Q 71.062 -19.422 69.930 -20.047 Q 68.797 -20.672 66.938 -20.672 L 62.094 -20.672 L 62.094 -0.000 L 59.125 -0.000 Z "/>
    <path d="M 83.141 0.125 Q 81.172 0.125 80.195 -0.930 Q 79.219 -1.984 79.219 -3.875 L 79.219 -23.281 L 82.031 -23.281 L 82.031 -4.578 Q 82.031 -3.375 82.320 -2.883 Q 82.609 -2.391 83.484 -2.391 Q 83.938 -2.391 84.172 -2.422 Q 84.406 -2.453 84.609 -2.516 L 85.172 -0.141 Q 84.797 -0.031 84.250 0.047 Q 83.703 0.125 83.141 0.125 Z "/>
    <path d="M 92.922 0.406 Q 91.266 0.406 89.914 -0.219 Q 88.562 -0.844 87.766 -2.047 Q 86.969 -3.250 86.969 -4.969 Q 86.969 -6.469 87.562 -7.406 Q 88.156 -8.344 89.148 -8.883 Q 90.141 -9.422 91.344 -9.688 Q 92.547 -9.953 93.766 -10.109 Q 95.328 -10.312 96.312 -10.422 Q 97.297 -10.531 97.773 -10.797 Q 98.250 -11.062 98.250 -11.703 L 98.250 -11.797 Q 98.250 -12.891 97.844 -13.648 Q 97.438 -14.406 96.625 -14.812 Q 95.812 -15.219 94.594 -15.219 Q 93.344 -15.219 92.453 -14.828 Q 91.562 -14.438 91.008 -13.852 Q 90.453 -13.266 90.172 -12.656 L 87.469 -13.547 Q 88.141 -15.141 89.281 -16.039 Q 90.422 -16.938 91.797 -17.312 Q 93.172 -17.688 94.516 -17.688 Q 95.391 -17.688 96.508 -17.477 Q 97.625 -17.266 98.664 -16.641 Q 99.703 -16.016 100.383 -14.789 Q 101.062 -13.562 101.062 -11.516 L 101.062 -0.000 L 98.297 -0.000 L 98.297 -2.375 L 98.109 -2.375 Q 97.812 -1.766 97.156 -1.117 Q 96.500 -0.469 95.453 -0.031 Q 94.406 0.406 92.922 0.406 Z M 93.406 -2.078 Q 94.969 -2.078 96.047 -2.688 Q 97.125 -3.297 97.688 -4.273 Q 98.250 -5.250 98.250 -6.312 L 98.250 -8.734 Q 98.078 -8.531 97.500 -8.367 Q 96.922 -8.203 96.180 -8.078 Q 95.438 -7.953 94.742 -7.867 Q 94.047 -7.781 93.641 -7.734 Q 92.625 -7.609 91.742 -7.305 Q 90.859 -7.000 90.328 -6.414 Q 89.797 -5.828 89.797 -4.828 Q 89.797 -3.922 90.266 -3.312 Q 90.734 -2.703 91.547 -2.391 Q 92.359 -2.078 93.406 -2.078 Z "/>
    <path d="M 108.812 -10.469 L 108.812 -0.000 L 106.000 -0.000 L 106.000 -17.469 L 108.703 -17.469 L 108.719 -13.234 L 108.328 -13.234 Q 109.125 -15.656 110.602 -16.672 Q 112.078 -17.688 114.062 -17.688 Q 115.828 -17.688 117.156 -16.961 Q 118.484 -16.234 119.227 -14.773 Q 119.969 -13.312 119.969 -11.094 L 119.969 -0.000 L 117.156 -0.000 L 117.156 -10.859 Q 117.156 -12.875 116.102 -14.016 Q 115.047 -15.156 113.219 -15.156 Q 111.969 -15.156 110.969 -14.609 Q 109.969 -14.062 109.391 -13.016 Q 108.812 -11.969 108.812 -10.469 Z "/>
    <path d="M 131.781 -17.469 L 131.781 -15.062 L 122.750 -15.062 L 122.750 -17.469 L 131.781 -17.469 Z M 125.375 -21.625 L 128.188 -21.625 L 128.188 -4.531 Q 128.188 -3.359 128.664 -2.820 Q 129.141 -2.281 130.250 -2.281 Q 130.516 -2.281 130.930 -2.344 Q 131.344 -2.406 131.688 -2.469 L 132.266 -0.094 Q 131.828 0.062 131.273 0.141 Q 130.719 0.219 130.172 0.219 Q 127.906 0.219 126.641 -0.977 Q 125.375 -2.172 125.375 -4.312 L 125.375 -21.625 Z "/>
    <path d="M 145.375 -11.234 L 145.375 -8.641 L 135.156 -8.641 L 135.156 -11.234 L 145.375 -11.234 Z "/>
    <path d="M 150.438 -0.000 L 150.438 -23.281 L 153.406 -23.281 L 153.406 -2.625 L 164.188 -2.625 L 164.188 -0.000 L 150.438 -0.000 Z "/>
    <path d="M 173.078 0.406 Q 171.422 0.406 170.070 -0.219 Q 168.719 -0.844 167.922 -2.047 Q 167.125 -3.250 167.125 -4.969 Q 167.125 -6.469 167.719 -7.406 Q 168.312 -8.344 169.305 -8.883 Q 170.297 -9.422 171.500 -9.688 Q 172.703 -9.953 173.922 -10.109 Q 175.484 -10.312 176.469 -10.422 Q 177.453 -10.531 177.930 -10.797 Q 178.406 -11.062 178.406 -11.703 L 178.406 -11.797 Q 178.406 -12.891 178.000 -13.648 Q 177.594 -14.406 176.781 -14.812 Q 175.969 -15.219 174.750 -15.219 Q 173.500 -15.219 172.609 -14.828 Q 171.719 -14.438 171.164 -13.852 Q 170.609 -13.266 170.328 -12.656 L 167.625 -13.547 Q 168.297 -15.141 169.438 -16.039 Q 170.578 -16.938 171.953 -17.312 Q 173.328 -17.688 174.672 -17.688 Q 175.547 -17.688 176.664 -17.477 Q 177.781 -17.266 178.820 -16.641 Q 179.859 -16.016 180.539 -14.789 Q 181.219 -13.562 181.219 -11.516 L 181.219 -0.000 L 178.453 -0.000 L 178.453 -2.375 L 178.266 -2.375 Q 177.969 -1.766 177.312 -1.117 Q 176.656 -0.469 175.609 -0.031 Q 174.562 0.406 173.078 0.406 Z M 173.562 -2.078 Q 175.125 -2.078 176.203 -2.688 Q 177.281 -3.297 177.844 -4.273 Q 178.406 -5.250 178.406 -6.312 L 178.406 -8.734 Q 178.234 -8.531 177.656 -8.367 Q 177.078 -8.203 176.336 -8.078 Q 175.594 -7.953 174.898 -7.867 Q 174.203 -7.781 173.797 -7.734 Q 172.781 -7.609 171.898 -7.305 Q 171.016 -7.000 170.484 -6.414 Q 169.953 -5.828 169.953 -4.828 Q 169.953 -3.922 170.422 -3.312 Q 170.891 -2.703 171.703 -2.391 Q 172.516 -2.078 173.562 -2.078 Z "/>
    <path d="M 194.266 0.375 Q 192.609 0.375 191.594 -0.195 Q 190.578 -0.766 190.031 -1.492 Q 189.484 -2.219 189.188 -2.703 L 188.875 -2.703 L 188.875 -0.000 L 186.156 -0.000 L 186.156 -23.281 L 188.969 -23.281 L 188.969 -14.672 L 189.188 -14.672 Q 189.484 -15.141 190.016 -15.852 Q 190.547 -16.562 191.547 -17.125 Q 192.547 -17.688 194.250 -17.688 Q 196.438 -17.688 198.102 -16.594 Q 199.766 -15.500 200.711 -13.477 Q 201.656 -11.453 201.656 -8.688 Q 201.656 -5.906 200.719 -3.875 Q 199.781 -1.844 198.117 -0.734 Q 196.453 0.375 194.266 0.375 Z M 193.844 -2.141 Q 195.484 -2.141 196.586 -3.023 Q 197.688 -3.906 198.242 -5.398 Q 198.797 -6.891 198.797 -8.719 Q 198.797 -10.531 198.250 -11.992 Q 197.703 -13.453 196.602 -14.312 Q 195.500 -15.172 193.844 -15.172 Q 192.234 -15.172 191.141 -14.359 Q 190.047 -13.547 189.492 -12.102 Q 188.938 -10.656 188.938 -8.719 Q 188.938 -6.781 189.500 -5.297 Q 190.062 -3.812 191.164 -2.977 Q 192.266 -2.141 193.844 -2.141 Z "/>
  </g>
</svg>
